<svg height="137pt" preserveAspectRatio="xMidYMid meet" viewBox="0 0 196 137" width="196pt" xmlns="http://www.w3.org/2000/svg"><path d="m1249 1269c-166-39-319-161-395-314-32-65-43-107-74-284-13-73-37-126-72-158-26-25-104-62-130-63-10 0-18-9-20-22-2-19-8-22-33-20-127 15-229 134-229 266 1 82 33 155 92 206 42 37 119 70 163 70 50 0 124-25 163-55l43-33 31 77c18 42 50 100 72 129s40 54 40 56c0 12-111 70-175 91-86 29-216 34-304 10-186-49-347-212-396-401-20-76-19-220 1-298 57-220 244-382 477-411 52-7 57-10 57-32 0-23 2-24 47-18 163 23 270 74 376 181 103 104 153 219 168 387 10 122 28 166 85 216 42 37 73 51 115 51 24 0 29 4 29 25 0 30 16 32 82 9 98-33 176-135 185-243 6-73-23-152-77-209-59-61-106-82-185-82-71 0-120 16-172 56-31 23-34 24-39 7-14-46-65-142-97-185l-36-47 27-19c62-44 140-75 221-88 297-49 564 137 627 436 39 185-28 396-168 525-87 81-232 145-330 145-34 0-38 3-38 25 0 23-3 25-47 24-27-1-64-5-84-10z" transform="matrix(.1 0 0 -.1 0 137)"/></svg>